<?xml version="1.0" standalone="no"?>
<!DOCTYPE svg PUBLIC "-//W3C//DTD SVG 20010904//EN"
 "http://www.w3.org/TR/2001/REC-SVG-20010904/DTD/svg10.dtd">
<svg version="1.0" xmlns="http://www.w3.org/2000/svg"
 width="750.000000pt" height="750.000000pt" viewBox="0 0 750.000000 750.000000"
 preserveAspectRatio="xMidYMid meet">
<metadata>
Created by potrace 1.14, written by Peter Selinger 2001-2017
</metadata>
<g transform="translate(0.000000,750.000000) scale(0.100000,-0.100000)"
fill="#000000" stroke="none">
<path d="M0 3750 l0 -3750 3750 0 3750 0 0 3750 0 3750 -3750 0 -3750 0 0
-3750z m557 -1172 c-1 -651 -2 -121 -2 1177 0 1298 1 1830 2 1183 2 -647 2
-1709 0 -2360z m4785 3525 c-875 -2 -2309 -2 -3185 0 -875 1 -159 2 1593 2
1752 0 2468 -1 1592 -2z m1605 -3525 c-1 -651 -2 -121 -2 1177 0 1298 1 1830
2 1183 2 -647 2 -1709 0 -2360z m-1667 2697 c16 -19 1 -19 -24 0 -16 12 -17
15 -4 15 8 0 21 -7 28 -15z m-1625 -65 c3 -5 -3 -10 -15 -10 -12 0 -18 5 -15
10 3 6 10 10 15 10 5 0 12 -4 15 -10z m175 0 c0 -6 -33 -10 -80 -10 -47 0 -80
4 -80 10 0 6 33 10 80 10 47 0 80 -4 80 -10z m50 -2 c0 -4 -9 -8 -21 -8 -11 0
-18 4 -15 8 3 5 12 9 21 9 8 0 15 -4 15 -9z m-270 -9 c0 -5 -17 -9 -37 -9 -54
-1 -198 -34 -306 -71 -95 -33 -236 -103 -323 -160 -260 -172 -477 -460 -572
-759 -32 -101 -65 -250 -63 -287 0 -13 -4 -23 -9 -23 -14 0 -13 25 11 141 59
296 188 538 404 754 106 107 224 196 345 262 122 65 322 133 439 149 25 3 47
7 49 9 8 7 62 2 62 -6z m310 1 c0 -5 -7 -10 -15 -10 -8 0 -15 5 -15 10 0 6 7
10 15 10 8 0 15 -4 15 -10z m185 -27 c485 -118 880 -486 1040 -967 44 -131 82
-376 58 -376 -5 0 -9 12 -9 28 -1 32 -11 117 -18 152 -3 14 -8 39 -12 55 -14
71 -49 177 -87 265 -189 439 -585 756 -1057 847 -49 9 -90 20 -90 24 0 11 57
2 175 -28z m-2595 -290 c-1 -10 -50 -46 -50 -37 0 11 32 44 42 44 4 0 8 -3 8
-7z m4698 -180 c10 -10 10 -13 1 -13 -15 0 -59 40 -59 53 0 9 18 -4 58 -40z
m-3906 -855 c-9 -9 -12 -7 -12 12 0 19 3 21 12 12 9 -9 9 -15 0 -24z m-2 -93
c0 -43 -4 -75 -10 -75 -11 0 -14 133 -3 143 12 13 13 7 13 -68z m2911 -58 c-8
-8 -11 7 -11 49 0 79 14 93 18 18 2 -31 -2 -62 -7 -67z m-1 -44 c0 -20 -3 -24
-11 -16 -7 7 -9 19 -6 27 10 24 17 19 17 -11z m-2904 -20 c3 -30 17 -135 19
-143 0 -3 4 -23 8 -45 4 -22 22 -83 38 -135 111 -342 346 -632 662 -814 53
-31 98 -56 101 -56 3 0 29 -11 58 -24 83 -38 290 -94 371 -100 56 -5 58 -6 52
-16 -4 -6 -11 -8 -16 -4 -6 3 -31 8 -57 10 -26 2 -58 6 -71 8 -57 12 -188 47
-206 55 -11 5 -51 22 -90 37 -425 174 -774 599 -860 1048 -19 97 -30 224 -20
214 4 -4 9 -20 11 -35z m2898 -60 c-29 -229 -115 -458 -245 -648 -30 -44 -108
-134 -174 -201 -134 -135 -247 -216 -409 -293 -122 -58 -221 -89 -403 -127
-13 -2 -23 -1 -23 4 0 4 37 16 83 25 427 89 790 358 996 740 74 139 140 342
157 490 4 31 11 57 16 57 5 0 6 -21 2 -47z m1416 -403 c0 -5 -2 -10 -4 -10 -3
0 -8 5 -11 10 -3 6 -1 10 4 10 6 0 11 -4 11 -10z m-5820 -621 c0 -6 -4 -7 -10
-4 -5 3 -10 11 -10 16 0 6 5 7 10 4 6 -3 10 -11 10 -16z m4770 -196 c0 -11
-57 -42 -64 -35 -3 3 6 13 22 23 30 19 42 23 42 12z m-1630 -42 c0 -12 -41
-22 -54 -13 -6 3 0 9 14 13 36 10 40 10 40 0z m-260 -11 c0 -5 -11 -10 -25
-10 -14 0 -25 5 -25 10 0 6 11 10 25 10 14 0 25 -4 25 -10z m120 -2 c0 -4 -23
-8 -51 -8 -27 0 -48 3 -46 8 7 10 97 10 97 0z m70 2 c0 -5 -11 -10 -25 -10
-14 0 -25 5 -25 10 0 6 11 10 25 10 14 0 25 -4 25 -10z m2516 -47 c-10 -10
-19 5 -10 18 6 11 8 11 12 0 2 -7 1 -15 -2 -18z m-796 -483 c0 -5 -7 -10 -16
-10 -8 0 -12 5 -9 10 3 6 10 10 16 10 5 0 9 -4 9 -10z m-180 -74 c0 -3 -4 -8
-10 -11 -5 -3 -10 -1 -10 4 0 6 5 11 10 11 6 0 10 -2 10 -4z m-2280 -256 c0
-5 -2 -10 -4 -10 -3 0 -8 5 -11 10 -3 6 -1 10 4 10 6 0 11 -4 11 -10z m2212
-37 c-875 -2 -2309 -2 -3185 0 -875 1 -159 2 1593 2 1752 0 2468 -1 1592 -2z"/>
</g>
</svg>
